# xmcd
#
# Track frame offsets:
#	183
#	23365
#	50070
#	97505
#	122075
#	153485
#	175825
#	202380
#	223793
#	244253
#	271278
#
# Disc length: 3922 seconds
#
# Revision: 1
# Processed by: cddbd v1.4PL0 Copyright (c) Steve Scherf et al.
# Submitted via: audiograbber 1.81.03
#
DISCID=970f500b
DTITLE=Mayall, J. and The Bluesbreakers - J. Mayall and His Bluesbreakers
DYEAR=1995
DGENRE=Blues
TTITLE0=All Your Love
TTITLE1=Wild About You 
TTITLE2=Room To Move
TTITLE3=Ridin' On The L and N
TTITLE4=Help Me
TTITLE5=Chicago Line
TTITLE6=Tears Came Rollin' Down
TTITLE7=Fascinatin' Lover
TTITLE8=The Last Time
TTITLE9=Dream About The Blues
TTITLE10=Cold Blooded Mama
EXTD=
EXTT0=
EXTT1=
EXTT2=
EXTT3=
EXTT4=
EXTT5=
EXTT6=
EXTT7=
EXTT8=
EXTT9=
EXTT10=
PLAYORDER=
